<?xml version="1.0" encoding="UTF-8" standalone="no"?>
<!-- Created with Inkscape (http://www.inkscape.org/) -->

<svg
   xmlns:dc="http://purl.org/dc/elements/1.1/"
   xmlns:cc="http://creativecommons.org/ns#"
   xmlns:rdf="http://www.w3.org/1999/02/22-rdf-syntax-ns#"
   xmlns:svg="http://www.w3.org/2000/svg"
   xmlns="http://www.w3.org/2000/svg"
   xmlns:xlink="http://www.w3.org/1999/xlink"
   xmlns:sodipodi="http://sodipodi.sourceforge.net/DTD/sodipodi-0.dtd"
   xmlns:inkscape="http://www.inkscape.org/namespaces/inkscape"
   width="89.323334mm"
   height="86.077774mm"
   viewBox="0 0 316.49997 304.99998"
   id="svg2"
   version="1.1"
   inkscape:version="0.91 r13725"
   sodipodi:docname="step0_curves.svg">
  <sodipodi:namedview
     id="base"
     pagecolor="#ffffff"
     bordercolor="#666666"
     borderopacity="1.0"
     inkscape:pageopacity="0.0"
     inkscape:pageshadow="2"
     inkscape:zoom="2"
     inkscape:cx="173.33664"
     inkscape:cy="229.28653"
     inkscape:document-units="px"
     inkscape:current-layer="layer1"
     showgrid="false"
     fit-margin-top="0"
     fit-margin-left="0"
     fit-margin-right="0"
     fit-margin-bottom="0"
     inkscape:window-width="1920"
     inkscape:window-height="1163"
     inkscape:window-x="0"
     inkscape:window-y="339"
     inkscape:window-maximized="1" />
  <defs
     id="defs4">
    <defs
       id="defs6417">
      <g
         id="g6419">
        <symbol
           style="overflow:visible"
           overflow="visible"
           id="textext-6ef2c4d6-0">
          <path
             inkscape:connector-curvature="0"
             style="stroke:none"
             d=""
             id="path6422" />
        </symbol>
        <symbol
           style="overflow:visible"
           overflow="visible"
           id="textext-6ef2c4d6-1">
          <path
             inkscape:connector-curvature="0"
             style="stroke:none"
             d="M 2.859375,-2.34375 C 3.15625,-2.71875 3.53125,-3.203125 3.78125,-3.46875 4.09375,-3.828125 4.5,-3.984375 4.96875,-3.984375 l 0,-0.3125 c -0.265625,0.015625 -0.5625,0.03125 -0.828125,0.03125 -0.296875,0 -0.828125,-0.015625 -0.953125,-0.03125 l 0,0.3125 c 0.21875,0.015625 0.296875,0.140625 0.296875,0.3125 0,0.15625 -0.109375,0.28125 -0.15625,0.34375 L 2.71875,-2.546875 1.9375,-3.5625 C 1.84375,-3.65625 1.84375,-3.671875 1.84375,-3.734375 c 0,-0.15625 0.15625,-0.25 0.34375,-0.25 l 0,-0.3125 c -0.25,0.015625 -0.90625,0.03125 -1.078125,0.03125 -0.203125,0 -0.671875,-0.015625 -0.9375,-0.03125 l 0,0.3125 c 0.703125,0 0.703125,0 1.171875,0.609375 l 0.984375,1.28125 -0.9375,1.1875 C 0.921875,-0.328125 0.328125,-0.3125 0.125,-0.3125 L 0.125,0 c 0.25,-0.015625 0.5625,-0.03125 0.828125,-0.03125 0.28125,0 0.703125,0.015625 0.9375,0.03125 l 0,-0.3125 c -0.21875,-0.03125 -0.28125,-0.15625 -0.28125,-0.3125 0,-0.21875 0.28125,-0.546875 0.890625,-1.265625 l 0.765625,1 C 3.34375,-0.78125 3.46875,-0.625 3.46875,-0.5625 c 0,0.09375 -0.09375,0.25 -0.359375,0.25 l 0,0.3125 C 3.40625,-0.015625 3.96875,-0.03125 4.1875,-0.03125 c 0.265625,0 0.65625,0.015625 0.953125,0.03125 l 0,-0.3125 c -0.53125,0 -0.71875,-0.015625 -0.9375,-0.3125 z m 0,0"
             id="path6425" />
        </symbol>
        <symbol
           style="overflow:visible"
           overflow="visible"
           id="textext-6ef2c4d6-2">
          <path
             inkscape:connector-curvature="0"
             style="stroke:none"
             d="m 1.75,-4.296875 0,-1.15625 c 0,-0.875 0.46875,-1.359375 0.90625,-1.359375 0.03125,0 0.1875,0 0.328125,0.078125 C 2.875,-6.703125 2.6875,-6.5625 2.6875,-6.3125 c 0,0.21875 0.15625,0.421875 0.4375,0.421875 0.28125,0 0.4375,-0.203125 0.4375,-0.4375 0,-0.375 -0.375,-0.703125 -0.90625,-0.703125 -0.6875,0 -1.546875,0.53125 -1.546875,1.59375 l 0,1.140625 -0.78125,0 0,0.3125 0.78125,0 0,3.234375 c 0,0.4375 -0.109375,0.4375 -0.765625,0.4375 l 0,0.3125 c 0.390625,-0.015625 0.859375,-0.03125 1.125,-0.03125 0.40625,0 0.875,0 1.265625,0.03125 l 0,-0.3125 -0.203125,0 c -0.734375,0 -0.75,-0.109375 -0.75,-0.46875 l 0,-3.203125 1.125,0 0,-0.3125 z m 0,0"
             id="path6428" />
        </symbol>
        <symbol
           style="overflow:visible"
           overflow="visible"
           id="textext-6ef2c4d6-3">
          <path
             inkscape:connector-curvature="0"
             style="stroke:none"
             d="m 3.296875,2.390625 c 0,-0.03125 0,-0.046875 -0.171875,-0.21875 C 1.890625,0.921875 1.5625,-0.96875 1.5625,-2.5 c 0,-1.734375 0.375,-3.46875 1.609375,-4.703125 0.125,-0.125 0.125,-0.140625 0.125,-0.171875 0,-0.078125 -0.03125,-0.109375 -0.09375,-0.109375 -0.109375,0 -1,0.6875 -1.59375,1.953125 -0.5,1.09375 -0.625,2.203125 -0.625,3.03125 0,0.78125 0.109375,1.984375 0.65625,3.125 C 2.25,1.84375 3.09375,2.5 3.203125,2.5 c 0.0625,0 0.09375,-0.03125 0.09375,-0.109375 z m 0,0"
             id="path6431" />
        </symbol>
        <symbol
           style="overflow:visible"
           overflow="visible"
           id="textext-6ef2c4d6-4">
          <path
             inkscape:connector-curvature="0"
             style="stroke:none"
             d="m 2.875,-2.5 c 0,-0.765625 -0.109375,-1.96875 -0.65625,-3.109375 -0.59375,-1.21875 -1.453125,-1.875 -1.546875,-1.875 -0.0625,0 -0.109375,0.046875 -0.109375,0.109375 0,0.03125 0,0.046875 0.1875,0.234375 0.984375,0.984375 1.546875,2.5625 1.546875,4.640625 0,1.71875 -0.359375,3.46875 -1.59375,4.71875 C 0.5625,2.34375 0.5625,2.359375 0.5625,2.390625 0.5625,2.453125 0.609375,2.5 0.671875,2.5 0.765625,2.5 1.671875,1.8125 2.25,0.546875 2.765625,-0.546875 2.875,-1.65625 2.875,-2.5 Z m 0,0"
             id="path6434" />
        </symbol>
      </g>
    </defs>
  </defs>
  <metadata
     id="metadata7">
    <rdf:RDF>
      <cc:Work
         rdf:about="">
        <dc:format>image/svg+xml</dc:format>
        <dc:type
           rdf:resource="http://purl.org/dc/dcmitype/StillImage" />
        <dc:title />
      </cc:Work>
    </rdf:RDF>
  </metadata>
  <g
     transform="translate(19.654816,-107.33667)"
     id="layer1"
     inkscape:groupmode="layer"
     inkscape:label="Layer 1">
    <circle
       r="15"
       cy="195.90514"
       cx="49.345184"
       id="path4140"
       style="color:#000000;clip-rule:nonzero;display:inline;overflow:visible;visibility:visible;opacity:1;isolation:auto;mix-blend-mode:normal;color-interpolation:sRGB;color-interpolation-filters:linearRGB;solid-color:#000000;solid-opacity:1;fill:#000000;fill-opacity:1;fill-rule:nonzero;stroke:none;stroke-width:2;stroke-linecap:butt;stroke-linejoin:miter;stroke-miterlimit:4;stroke-dasharray:none;stroke-dashoffset:1.60000002;stroke-opacity:1;color-rendering:auto;image-rendering:auto;shape-rendering:auto;text-rendering:auto;enable-background:accumulate" />
    <circle
       r="15"
       cy="165.09549"
       cx="163.9975"
       id="path4142"
       style="color:#000000;clip-rule:nonzero;display:inline;overflow:visible;visibility:visible;opacity:1;isolation:auto;mix-blend-mode:normal;color-interpolation:sRGB;color-interpolation-filters:linearRGB;solid-color:#000000;solid-opacity:1;fill:#000000;fill-opacity:1;fill-rule:nonzero;stroke:none;stroke-width:2;stroke-linecap:butt;stroke-linejoin:miter;stroke-miterlimit:4;stroke-dasharray:none;stroke-dashoffset:1.60000002;stroke-opacity:1;color-rendering:auto;image-rendering:auto;shape-rendering:auto;text-rendering:auto;enable-background:accumulate" />
    <circle
       r="15"
       cy="369.83667"
       cx="127.07872"
       id="path4144"
       style="color:#000000;clip-rule:nonzero;display:inline;overflow:visible;visibility:visible;opacity:1;isolation:auto;mix-blend-mode:normal;color-interpolation:sRGB;color-interpolation-filters:linearRGB;solid-color:#000000;solid-opacity:1;fill:#000000;fill-opacity:1;fill-rule:nonzero;stroke:none;stroke-width:2;stroke-linecap:butt;stroke-linejoin:miter;stroke-miterlimit:4;stroke-dasharray:none;stroke-dashoffset:1.60000002;stroke-opacity:1;color-rendering:auto;image-rendering:auto;shape-rendering:auto;text-rendering:auto;enable-background:accumulate" />
    <circle
       r="15"
       cy="321.8544"
       cx="162.43405"
       id="path4146"
       style="color:#000000;clip-rule:nonzero;display:inline;overflow:visible;visibility:visible;opacity:1;isolation:auto;mix-blend-mode:normal;color-interpolation:sRGB;color-interpolation-filters:linearRGB;solid-color:#000000;solid-opacity:1;fill:#000000;fill-opacity:1;fill-rule:nonzero;stroke:none;stroke-width:2;stroke-linecap:butt;stroke-linejoin:miter;stroke-miterlimit:4;stroke-dasharray:none;stroke-dashoffset:1.60000002;stroke-opacity:1;color-rendering:auto;image-rendering:auto;shape-rendering:auto;text-rendering:auto;enable-background:accumulate" />
    <circle
       r="15"
       cy="259.83154"
       cx="242.21582"
       id="path4148"
       style="color:#000000;clip-rule:nonzero;display:inline;overflow:visible;visibility:visible;opacity:1;isolation:auto;mix-blend-mode:normal;color-interpolation:sRGB;color-interpolation-filters:linearRGB;solid-color:#000000;solid-opacity:1;fill:#000000;fill-opacity:1;fill-rule:nonzero;stroke:none;stroke-width:2;stroke-linecap:butt;stroke-linejoin:miter;stroke-miterlimit:4;stroke-dasharray:none;stroke-dashoffset:1.60000002;stroke-opacity:1;color-rendering:auto;image-rendering:auto;shape-rendering:auto;text-rendering:auto;enable-background:accumulate" />
    <g
       id="g6700"
       transform="translate(180.99998,-98.999988)"
       style="stroke-width:0.99999988;stroke-miterlimit:4;stroke-dasharray:none">
      <path
         style="fill:none;fill-rule:evenodd;stroke:#000000;stroke-width:0.99999988;stroke-linecap:butt;stroke-linejoin:miter;stroke-opacity:1;stroke-miterlimit:4;stroke-dasharray:none"
         d="M 2.4058361,265.04905 C 52.23952,222.55985 41.861175,293.18041 78.022426,227.43268"
         id="path6383"
         inkscape:connector-curvature="0" />
      <g
         id="g6562"
         style="stroke-width:0.99999988;stroke-miterlimit:4;stroke-dasharray:none">
        <path
           style="fill:none;fill-rule:evenodd;stroke:#000000;stroke-width:0.99999988;stroke-linecap:butt;stroke-linejoin:miter;stroke-opacity:1;stroke-miterlimit:4;stroke-dasharray:none"
           d="m -5.2709754,217.83666 0,60.45489 87.8994814,0"
           id="path6564"
           inkscape:connector-curvature="0" />
        <g
           transform="translate(-139.99999,145.49998)"
           style="fill:#000000;fill-opacity:1;stroke-width:0.99999988;stroke-miterlimit:4;stroke-dasharray:none"
           id="g6566">
          <use
             height="100%"
             width="100%"
             xlink:href="#textext-6ef2c4d6-1"
             x="223.43201"
             y="134.765"
             id="use6568"
             style="stroke-width:0.99999988;stroke-miterlimit:4;stroke-dasharray:none" />
        </g>
        <g
           transform="translate(-251.74997,68.749991)"
           style="fill:#000000;fill-opacity:1;stroke-width:0.99999988;stroke-miterlimit:4;stroke-dasharray:none"
           id="g6570">
          <use
             height="100%"
             width="100%"
             xlink:href="#textext-6ef2c4d6-2"
             x="238.37601"
             y="146.72"
             id="use6572"
             style="stroke-width:0.99999988;stroke-miterlimit:4;stroke-dasharray:none" />
          <use
             height="100%"
             width="100%"
             xlink:href="#textext-6ef2c4d6-3"
             x="241.42058"
             y="146.72"
             id="use6574"
             style="stroke-width:0.99999988;stroke-miterlimit:4;stroke-dasharray:none" />
          <use
             height="100%"
             width="100%"
             xlink:href="#textext-6ef2c4d6-1"
             x="245.29503"
             y="146.72"
             id="use6576"
             style="stroke-width:0.99999988;stroke-miterlimit:4;stroke-dasharray:none" />
          <use
             height="100%"
             width="100%"
             xlink:href="#textext-6ef2c4d6-4"
             x="250.55328"
             y="146.72"
             id="use6578"
             style="stroke-width:0.99999988;stroke-miterlimit:4;stroke-dasharray:none" />
        </g>
      </g>
    </g>
    <g
       id="g6688"
       transform="translate(11.499999,-85.49999)"
       style="stroke-width:0.99999988;stroke-miterlimit:4;stroke-dasharray:none;stroke:#000000;stroke-opacity:1">
      <path
         style="fill:none;fill-rule:evenodd;stroke:#000000;stroke-width:0.99999988;stroke-linecap:butt;stroke-linejoin:miter;stroke-opacity:1;stroke-miterlimit:4;stroke-dasharray:none"
         d="M -0.66488851,269.2713 C 41.835214,206.51933 56.245805,331.41973 76.103224,225.51347"
         id="path6387"
         inkscape:connector-curvature="0" />
      <g
         id="g6580"
         style="stroke-width:0.99999988;stroke-miterlimit:4;stroke-dasharray:none;stroke:#000000;stroke-opacity:1">
        <path
           inkscape:connector-curvature="0"
           id="path6582"
           d="m -5.2709754,217.83666 0,60.45489 87.8994814,0"
           style="fill:none;fill-rule:evenodd;stroke:#000000;stroke-width:0.99999988;stroke-linecap:butt;stroke-linejoin:miter;stroke-opacity:1;stroke-miterlimit:4;stroke-dasharray:none" />
        <g
           id="g6584"
           style="fill:#000000;fill-opacity:1;stroke-width:0.99999988;stroke-miterlimit:4;stroke-dasharray:none;stroke:#000000;stroke-opacity:1"
           transform="translate(-139.99999,145.49998)">
          <use
             id="use6586"
             y="134.765"
             x="223.43201"
             xlink:href="#textext-6ef2c4d6-1"
             width="100%"
             height="100%"
             style="stroke-width:0.99999988;stroke-miterlimit:4;stroke-dasharray:none;stroke:#000000;stroke-opacity:1" />
        </g>
        <g
           id="g6588"
           style="fill:#000000;fill-opacity:1;stroke-width:0.99999988;stroke-miterlimit:4;stroke-dasharray:none;stroke:#000000;stroke-opacity:1"
           transform="translate(-251.74997,68.749991)">
          <use
             id="use6590"
             y="146.72"
             x="238.37601"
             xlink:href="#textext-6ef2c4d6-2"
             width="100%"
             height="100%"
             style="stroke-width:0.99999988;stroke-miterlimit:4;stroke-dasharray:none;stroke:#000000;stroke-opacity:1" />
          <use
             id="use6592"
             y="146.72"
             x="241.42058"
             xlink:href="#textext-6ef2c4d6-3"
             width="100%"
             height="100%"
             style="stroke-width:0.99999988;stroke-miterlimit:4;stroke-dasharray:none;stroke:#000000;stroke-opacity:1" />
          <use
             id="use6594"
             y="146.72"
             x="245.29503"
             xlink:href="#textext-6ef2c4d6-1"
             width="100%"
             height="100%"
             style="stroke-width:0.99999988;stroke-miterlimit:4;stroke-dasharray:none;stroke:#000000;stroke-opacity:1" />
          <use
             id="use6596"
             y="146.72"
             x="250.55328"
             xlink:href="#textext-6ef2c4d6-4"
             width="100%"
             height="100%"
             style="stroke-width:0.99999988;stroke-miterlimit:4;stroke-dasharray:none;stroke:#000000;stroke-opacity:1" />
        </g>
      </g>
    </g>
    <g
       id="g6676"
       transform="translate(152.99998,130.49998)"
       style="stroke-width:0.99999988;stroke-miterlimit:4;stroke-dasharray:none">
      <path
         style="fill:none;fill-rule:evenodd;stroke:#000000;stroke-width:0.99999988;stroke-linecap:butt;stroke-linejoin:miter;stroke-opacity:1;stroke-miterlimit:4;stroke-dasharray:none"
         d="M 6.6280824,275.79659 C 30.796788,258.22962 60.419393,248.6837 84.163876,231.27108"
         id="path6393"
         inkscape:connector-curvature="0" />
      <g
         id="g6598"
         style="stroke-width:0.99999988;stroke-miterlimit:4;stroke-dasharray:none">
        <path
           style="fill:none;fill-rule:evenodd;stroke:#000000;stroke-width:0.99999988;stroke-linecap:butt;stroke-linejoin:miter;stroke-opacity:1;stroke-miterlimit:4;stroke-dasharray:none"
           d="m -5.2709754,217.83666 0,60.45489 87.8994814,0"
           id="path6600"
           inkscape:connector-curvature="0" />
        <g
           transform="translate(-139.99999,145.49998)"
           style="fill:#000000;fill-opacity:1;stroke-width:0.99999988;stroke-miterlimit:4;stroke-dasharray:none"
           id="g6602">
          <use
             height="100%"
             width="100%"
             xlink:href="#textext-6ef2c4d6-1"
             x="223.43201"
             y="134.765"
             id="use6604"
             style="stroke-width:0.99999988;stroke-miterlimit:4;stroke-dasharray:none" />
        </g>
        <g
           transform="translate(-251.74997,68.749991)"
           style="fill:#000000;fill-opacity:1;stroke-width:0.99999988;stroke-miterlimit:4;stroke-dasharray:none"
           id="g6606">
          <use
             height="100%"
             width="100%"
             xlink:href="#textext-6ef2c4d6-2"
             x="238.37601"
             y="146.72"
             id="use6608"
             style="stroke-width:0.99999988;stroke-miterlimit:4;stroke-dasharray:none" />
          <use
             height="100%"
             width="100%"
             xlink:href="#textext-6ef2c4d6-3"
             x="241.42058"
             y="146.72"
             id="use6610"
             style="stroke-width:0.99999988;stroke-miterlimit:4;stroke-dasharray:none" />
          <use
             height="100%"
             width="100%"
             xlink:href="#textext-6ef2c4d6-1"
             x="245.29503"
             y="146.72"
             id="use6612"
             style="stroke-width:0.99999988;stroke-miterlimit:4;stroke-dasharray:none" />
          <use
             height="100%"
             width="100%"
             xlink:href="#textext-6ef2c4d6-4"
             x="250.55328"
             y="146.72"
             id="use6614"
             style="stroke-width:0.99999988;stroke-miterlimit:4;stroke-dasharray:none" />
        </g>
      </g>
    </g>
    <g
       id="g6664"
       transform="translate(185.99998,78.499991)"
       style="stroke-width:0.99999988;stroke-miterlimit:4;stroke-dasharray:none">
      <path
         style="fill:none;fill-rule:evenodd;stroke:#000000;stroke-width:0.99999988;stroke-linecap:butt;stroke-linejoin:miter;stroke-opacity:1;stroke-miterlimit:4;stroke-dasharray:none"
         d="m 12.385691,274.64507 c 21.985617,-17.1252 43.436491,-26.07292 62.949853,-47.21239"
         id="path6395"
         inkscape:connector-curvature="0"
         sodipodi:nodetypes="cc" />
      <g
         id="g6616"
         style="stroke-width:0.99999988;stroke-miterlimit:4;stroke-dasharray:none">
        <path
           inkscape:connector-curvature="0"
           id="path6618"
           d="m -5.2709754,217.83666 0,60.45489 87.8994814,0"
           style="fill:none;fill-rule:evenodd;stroke:#000000;stroke-width:0.99999988;stroke-linecap:butt;stroke-linejoin:miter;stroke-opacity:1;stroke-miterlimit:4;stroke-dasharray:none" />
        <g
           id="g6620"
           style="fill:#000000;fill-opacity:1;stroke-width:0.99999988;stroke-miterlimit:4;stroke-dasharray:none"
           transform="translate(-139.99999,145.49998)">
          <use
             id="use6622"
             y="134.765"
             x="223.43201"
             xlink:href="#textext-6ef2c4d6-1"
             width="100%"
             height="100%"
             style="stroke-width:0.99999988;stroke-miterlimit:4;stroke-dasharray:none" />
        </g>
        <g
           id="g6624"
           style="fill:#000000;fill-opacity:1;stroke-width:0.99999988;stroke-miterlimit:4;stroke-dasharray:none"
           transform="translate(-251.74997,68.749991)">
          <use
             id="use6626"
             y="146.72"
             x="238.37601"
             xlink:href="#textext-6ef2c4d6-2"
             width="100%"
             height="100%"
             style="stroke-width:0.99999988;stroke-miterlimit:4;stroke-dasharray:none" />
          <use
             id="use6628"
             y="146.72"
             x="241.42058"
             xlink:href="#textext-6ef2c4d6-3"
             width="100%"
             height="100%"
             style="stroke-width:0.99999988;stroke-miterlimit:4;stroke-dasharray:none" />
          <use
             id="use6630"
             y="146.72"
             x="245.29503"
             xlink:href="#textext-6ef2c4d6-1"
             width="100%"
             height="100%"
             style="stroke-width:0.99999988;stroke-miterlimit:4;stroke-dasharray:none" />
          <use
             id="use6632"
             y="146.72"
             x="250.55328"
             xlink:href="#textext-6ef2c4d6-4"
             width="100%"
             height="100%"
             style="stroke-width:0.99999988;stroke-miterlimit:4;stroke-dasharray:none" />
        </g>
      </g>
    </g>
    <g
       id="g6652"
       transform="translate(206.24997,-12.249998)"
       style="stroke-width:0.99999988;stroke-miterlimit:4;stroke-dasharray:none">
      <path
         style="fill:none;fill-rule:evenodd;stroke:#000000;stroke-width:0.99999988;stroke-linecap:butt;stroke-linejoin:miter;stroke-opacity:1;stroke-miterlimit:4;stroke-dasharray:none"
         d="m 1.5421953,253.05404 c 32.7127137,-13.75138 42.7859897,9.58554 73.3135467,0.38384"
         id="path6391"
         inkscape:connector-curvature="0"
         sodipodi:nodetypes="cc" />
      <g
         id="g6634"
         style="stroke-width:0.99999988;stroke-miterlimit:4;stroke-dasharray:none">
        <path
           style="fill:none;fill-rule:evenodd;stroke:#000000;stroke-width:0.99999988;stroke-linecap:butt;stroke-linejoin:miter;stroke-opacity:1;stroke-miterlimit:4;stroke-dasharray:none"
           d="m -5.2709754,217.83666 0,60.45489 87.8994814,0"
           id="path6636"
           inkscape:connector-curvature="0" />
        <g
           transform="translate(-139.99999,145.49998)"
           style="fill:#000000;fill-opacity:1;stroke-width:0.99999988;stroke-miterlimit:4;stroke-dasharray:none"
           id="g6638">
          <use
             height="100%"
             width="100%"
             xlink:href="#textext-6ef2c4d6-1"
             x="223.43201"
             y="134.765"
             id="use6640"
             style="stroke-width:0.99999988;stroke-miterlimit:4;stroke-dasharray:none" />
        </g>
        <g
           transform="translate(-251.74997,68.749991)"
           style="fill:#000000;fill-opacity:1;stroke-width:0.99999988;stroke-miterlimit:4;stroke-dasharray:none"
           id="g6642">
          <use
             height="100%"
             width="100%"
             xlink:href="#textext-6ef2c4d6-2"
             x="238.37601"
             y="146.72"
             id="use6644"
             style="stroke-width:0.99999988;stroke-miterlimit:4;stroke-dasharray:none" />
          <use
             height="100%"
             width="100%"
             xlink:href="#textext-6ef2c4d6-3"
             x="241.42058"
             y="146.72"
             id="use6646"
             style="stroke-width:0.99999988;stroke-miterlimit:4;stroke-dasharray:none" />
          <use
             height="100%"
             width="100%"
             xlink:href="#textext-6ef2c4d6-1"
             x="245.29503"
             y="146.72"
             id="use6648"
             style="stroke-width:0.99999988;stroke-miterlimit:4;stroke-dasharray:none" />
          <use
             height="100%"
             width="100%"
             xlink:href="#textext-6ef2c4d6-4"
             x="250.55328"
             y="146.72"
             id="use6650"
             style="stroke-width:0.99999988;stroke-miterlimit:4;stroke-dasharray:none" />
        </g>
      </g>
    </g>
  </g>
</svg>
